<?xml version="1.0" encoding="UTF-8" standalone="no"?>
<svg xmlns:dc="http://purl.org/dc/elements/1.1/" 
   xmlns:cc="http://creativecommons.org/ns#" 
   xmlns:rdf="http://www.w3.org/1999/02/22-rdf-syntax-ns#" 
   xmlns:svg="http://www.w3.org/2000/svg" 
   xmlns="http://www.w3.org/2000/svg" 
   xmlns:sodipodi="http://sodipodi.sourceforge.net/DTD/sodipodi-0.dtd" 
   xmlns:inkscape="http://www.inkscape.org/namespaces/inkscape" width="100" height="100" viewBox="0 0 100 100" version="1.1" id="svg855" sodipodi:docname="icon.svg" inkscape:version="0.92.3 (2405546, 2018-03-11)">
   <metadata id="metadata861">
      <rdf:RDF>
         <cc:Work rdf:about="">
            <dc:format>image/svg+xml</dc:format>
            <dc:type rdf:resource="http://purl.org/dc/dcmitype/StillImage" />
         </cc:Work>
      </rdf:RDF>
   </metadata>
   <defs id="defs859" />
   <sodipodi:namedview pagecolor="#ffffff" bordercolor="#666666" borderopacity="1" objecttolerance="10" gridtolerance="10" guidetolerance="10" inkscape:pageopacity="0" inkscape:pageshadow="2" inkscape:window-width="1920" inkscape:window-height="1017" id="namedview857" showgrid="false" inkscape:zoom="3.0582368" inkscape:cx="149.4662" inkscape:cy="28.123173" inkscape:window-x="1912" inkscape:window-y="-8" inkscape:window-maximized="1" inkscape:current-layer="svg855" />
   <svg xml:space="preserve" version="1.1" style="clip-rule:evenodd;fill:#23843e;fill-rule:evenodd;image-rendering:optimizeQuality;shape-rendering:geometricPrecision;text-rendering:geometricPrecision" viewBox="0 0 333 333" x="0px" y="0px" id="svg849" width="100%" height="100%">
      <defs id="defs843">
         <style type="text/css" id="style841">
   
    .fil0 {fill:#23843e;fill-rule:nonzero}
   
         </style>
      </defs>
      <g id="g847">
         <path class="fil0" d="m 72,120 c 0,8 -12,8 -12,0 v -8 C 60,83 83,60 112,60 h 8 c 8,0 8,12 0,12 h -8 C 90,72 72,90 72,112 Z M 214,72 c -8,0 -8,-12 0,-12 h 7 c 29,0 53,23 53,52 v 8 c 0,8 -12,8 -12,0 v -8 C 262,90 243,72 221,72 Z m 48,142 c 0,-8 12,-8 12,0 v 7 c 0,15 -6,28 -16,37 -9,10 -22,16 -37,16 h -7 c -8,0 -8,-12 0,-12 h 7 c 11,0 21,-5 29,-12 7,-8 12,-18 12,-29 z m -142,48 c 8,0 8,12 0,12 h -8 C 98,274 84,268 75,258 65,249 60,236 60,221 v -7 c 0,-8 12,-8 12,0 v 7 c 0,11 4,21 12,29 7,7 17,12 28,12 z M 198,34 V 97 H 135 V 34 Z m -12,12 h -39 v 39 h 39 z M 34,135 h 63 v 63 H 34 Z m 12,12 v 39 h 39 v -39 z m 190,-12 h 64 v 63 h -64 z m 13,12 v 39 h 38 v -39 z m -51,89 v 64 h -63 v -64 z m -12,13 h -39 v 38 h 39 z" id="path845" inkscape:connector-curvature="0" style="fill:#23843e;fill-rule:nonzero" />
      </g>
   </svg>
</svg>
